HIERARCHY
ROOT mixamorig:Hips
{
	OFFSET -0.000000 103.991470 2.076077 
	CHANNELS 6 Xposition Yposition Zposition Xrotation Yrotation Zrotation
	JOINT mixamorig:Spine
	{
		OFFSET 0.000009 10.181587 0.131521 
		CHANNELS 6 Xposition Yposition Zposition Xrotation Yrotation Zrotation
		JOINT mixamorig:Spine1
		{
			OFFSET 0.000000 10.083450 -1.000804 
			CHANNELS 6 Xposition Yposition Zposition Xrotation Yrotation Zrotation
			JOINT mixamorig:Spine2
			{
				OFFSET 0.000000 9.100014 -1.373417 
				CHANNELS 6 Xposition Yposition Zposition Xrotation Yrotation Zrotation
				JOINT mixamorig:Neck
				{
					OFFSET 0.000001 16.671661 -2.516168 
					CHANNELS 6 Xposition Yposition Zposition Xrotation Yrotation Zrotation
					JOINT mixamorig:Head
					{
						OFFSET -0.000000 9.617889 1.685008 
						CHANNELS 6 Xposition Yposition Zposition Xrotation Yrotation Zrotation
						JOINT mixamorig:HeadTop_End
						{
							OFFSET -0.000001 17.815155 2.584985 
							CHANNELS 6 Xposition Yposition Zposition Xrotation Yrotation Zrotation
							End Site
							{
								OFFSET 0.000000 13.794479 0.000000 
							}
						}
						JOINT mixamorig:LeftEye
						{
							OFFSET 3.067561 6.409500 9.283554 
							CHANNELS 6 Xposition Yposition Zposition Xrotation Yrotation Zrotation
							End Site
							{
								OFFSET 0.000000 13.794479 0.000000 
							}
						}
						JOINT mixamorig:RightEye
						{
							OFFSET -3.067550 6.409500 9.283547 
							CHANNELS 6 Xposition Yposition Zposition Xrotation Yrotation Zrotation
							End Site
							{
								OFFSET 0.000000 13.794479 0.000000 
							}
						}
					}
				}
				JOINT mixamorig:LeftShoulder
				{
					OFFSET 4.570446 10.945984 -2.627988 
					CHANNELS 6 Xposition Yposition Zposition Xrotation Yrotation Zrotation
					JOINT mixamorig:LeftArm
					{
						OFFSET 10.592371 -0.524582 -2.232120 
						CHANNELS 6 Xposition Yposition Zposition Xrotation Yrotation Zrotation
						JOINT mixamorig:LeftForeArm
						{
							OFFSET 27.841522 -0.000092 0.000038 
							CHANNELS 6 Xposition Yposition Zposition Xrotation Yrotation Zrotation
							JOINT mixamorig:LeftHand
							{
								OFFSET 28.328835 -0.000015 0.000038 
								CHANNELS 6 Xposition Yposition Zposition Xrotation Yrotation Zrotation
								JOINT mixamorig:LeftHandThumb1
								{
									OFFSET 2.466141 -1.575058 2.682414 
									CHANNELS 6 Xposition Yposition Zposition Xrotation Yrotation Zrotation
									JOINT mixamorig:LeftHandThumb2
									{
										OFFSET 3.229805 -1.864685 1.864681 
										CHANNELS 6 Xposition Yposition Zposition Xrotation Yrotation Zrotation
										JOINT mixamorig:LeftHandThumb3
										{
											OFFSET 2.652565 -1.531494 1.531472 
											CHANNELS 6 Xposition Yposition Zposition Xrotation Yrotation Zrotation
											JOINT mixamorig:LeftHandThumb4
											{
												OFFSET 1.954567 -1.128494 1.128492 
												CHANNELS 6 Xposition Yposition Zposition Xrotation Yrotation Zrotation
												End Site
												{
													OFFSET 0.000000 2.523361 0.000000 
												}
											}
										}
									}
								}
								JOINT mixamorig:LeftHandIndex1
								{
									OFFSET 9.109306 -0.517090 2.260073 
									CHANNELS 6 Xposition Yposition Zposition Xrotation Yrotation Zrotation
									JOINT mixamorig:LeftHandIndex2
									{
										OFFSET 3.676407 0.000000 0.000029 
										CHANNELS 6 Xposition Yposition Zposition Xrotation Yrotation Zrotation
										JOINT mixamorig:LeftHandIndex3
										{
											OFFSET 2.883064 0.000031 -0.000043 
											CHANNELS 6 Xposition Yposition Zposition Xrotation Yrotation Zrotation
											JOINT mixamorig:LeftHandIndex4
											{
												OFFSET 2.392723 0.000031 0.000034 
												CHANNELS 6 Xposition Yposition Zposition Xrotation Yrotation Zrotation
												End Site
												{
													OFFSET 0.000000 2.392715 0.000000 
												}
											}
										}
									}
								}
								JOINT mixamorig:LeftHandMiddle1
								{
									OFFSET 9.533401 -0.000031 0.000014 
									CHANNELS 6 Xposition Yposition Zposition Xrotation Yrotation Zrotation
									JOINT mixamorig:LeftHandMiddle2
									{
										OFFSET 3.698235 0.000000 0.000018 
										CHANNELS 6 Xposition Yposition Zposition Xrotation Yrotation Zrotation
										JOINT mixamorig:LeftHandMiddle3
										{
											OFFSET 2.950928 -0.000046 0.000016 
											CHANNELS 6 Xposition Yposition Zposition Xrotation Yrotation Zrotation
											JOINT mixamorig:LeftHandMiddle4
											{
												OFFSET 2.833900 -0.000046 -0.000010 
												CHANNELS 6 Xposition Yposition Zposition Xrotation Yrotation Zrotation
												End Site
												{
													OFFSET 0.000000 2.833908 0.000000 
												}
											}
										}
									}
								}
								JOINT mixamorig:LeftHandRing1
								{
									OFFSET 9.104530 -0.043945 -1.865085 
									CHANNELS 6 Xposition Yposition Zposition Xrotation Yrotation Zrotation
									JOINT mixamorig:LeftHandRing2
									{
										OFFSET 3.154022 0.000000 0.000010 
										CHANNELS 6 Xposition Yposition Zposition Xrotation Yrotation Zrotation
										JOINT mixamorig:LeftHandRing3
										{
											OFFSET 2.937675 -0.000046 -0.000007 
											CHANNELS 6 Xposition Yposition Zposition Xrotation Yrotation Zrotation
											JOINT mixamorig:LeftHandRing4
											{
												OFFSET 2.647453 -0.000046 0.000000 
												CHANNELS 6 Xposition Yposition Zposition Xrotation Yrotation Zrotation
												End Site
												{
													OFFSET 0.000000 2.647446 0.000000 
												}
											}
										}
									}
								}
								JOINT mixamorig:LeftHandPinky1
								{
									OFFSET 8.077782 -0.488663 -3.806067 
									CHANNELS 6 Xposition Yposition Zposition Xrotation Yrotation Zrotation
									JOINT mixamorig:LeftHandPinky2
									{
										OFFSET 3.600029 -0.000015 -0.000027 
										CHANNELS 6 Xposition Yposition Zposition Xrotation Yrotation Zrotation
										JOINT mixamorig:LeftHandPinky3
										{
											OFFSET 2.114212 0.000031 -0.000003 
											CHANNELS 6 Xposition Yposition Zposition Xrotation Yrotation Zrotation
											JOINT mixamorig:LeftHandPinky4
											{
												OFFSET 1.975685 0.000015 -0.000044 
												CHANNELS 6 Xposition Yposition Zposition Xrotation Yrotation Zrotation
												End Site
												{
													OFFSET 0.000000 1.975677 0.000000 
												}
											}
										}
									}
								}
							}
						}
					}
				}
				JOINT mixamorig:RightShoulder
				{
					OFFSET -4.569970 10.946182 -2.628017 
					CHANNELS 6 Xposition Yposition Zposition Xrotation Yrotation Zrotation
					JOINT mixamorig:RightArm
					{
						OFFSET -10.592844 -0.524811 -2.232099 
						CHANNELS 6 Xposition Yposition Zposition Xrotation Yrotation Zrotation
						JOINT mixamorig:RightForeArm
						{
							OFFSET -27.841522 -0.000031 0.000012 
							CHANNELS 6 Xposition Yposition Zposition Xrotation Yrotation Zrotation
							JOINT mixamorig:RightHand
							{
								OFFSET -28.328835 0.000000 0.000056 
								CHANNELS 6 Xposition Yposition Zposition Xrotation Yrotation Zrotation
								JOINT mixamorig:RightHandPinky1
								{
									OFFSET -8.076675 -0.488449 -3.806010 
									CHANNELS 6 Xposition Yposition Zposition Xrotation Yrotation Zrotation
									JOINT mixamorig:RightHandPinky2
									{
										OFFSET -3.600037 0.000031 0.000051 
										CHANNELS 6 Xposition Yposition Zposition Xrotation Yrotation Zrotation
										JOINT mixamorig:RightHandPinky3
										{
											OFFSET -2.114212 0.000015 0.000015 
											CHANNELS 6 Xposition Yposition Zposition Xrotation Yrotation Zrotation
											JOINT mixamorig:RightHandPinky4
											{
												OFFSET -1.975685 -0.000015 -0.000001 
												CHANNELS 6 Xposition Yposition Zposition Xrotation Yrotation Zrotation
												End Site
												{
													OFFSET 0.000000 1.975677 0.000000 
												}
											}
										}
									}
								}
								JOINT mixamorig:RightHandRing1
								{
									OFFSET -9.103592 -0.043915 -1.865072 
									CHANNELS 6 Xposition Yposition Zposition Xrotation Yrotation Zrotation
									JOINT mixamorig:RightHandRing2
									{
										OFFSET -3.154022 0.000031 0.000049 
										CHANNELS 6 Xposition Yposition Zposition Xrotation Yrotation Zrotation
										JOINT mixamorig:RightHandRing3
										{
											OFFSET -2.937675 -0.000046 -0.000040 
											CHANNELS 6 Xposition Yposition Zposition Xrotation Yrotation Zrotation
											JOINT mixamorig:RightHandRing4
											{
												OFFSET -2.647453 0.000031 -0.000002 
												CHANNELS 6 Xposition Yposition Zposition Xrotation Yrotation Zrotation
												End Site
												{
													OFFSET 0.000000 2.647446 0.000000 
												}
											}
										}
									}
								}
								JOINT mixamorig:RightHandMiddle1
								{
									OFFSET -9.532509 -0.000015 0.000017 
									CHANNELS 6 Xposition Yposition Zposition Xrotation Yrotation Zrotation
									JOINT mixamorig:RightHandMiddle2
									{
										OFFSET -3.698235 0.000015 -0.000022 
										CHANNELS 6 Xposition Yposition Zposition Xrotation Yrotation Zrotation
										JOINT mixamorig:RightHandMiddle3
										{
											OFFSET -2.950920 0.000000 -0.000000 
											CHANNELS 6 Xposition Yposition Zposition Xrotation Yrotation Zrotation
											JOINT mixamorig:RightHandMiddle4
											{
												OFFSET -2.833900 0.000015 0.000054 
												CHANNELS 6 Xposition Yposition Zposition Xrotation Yrotation Zrotation
												End Site
												{
													OFFSET 0.000000 2.833908 0.000000 
												}
											}
										}
									}
								}
								JOINT mixamorig:RightHandIndex1
								{
									OFFSET -9.108284 -0.516785 2.260116 
									CHANNELS 6 Xposition Yposition Zposition Xrotation Yrotation Zrotation
									JOINT mixamorig:RightHandIndex2
									{
										OFFSET -3.676407 0.000015 0.000032 
										CHANNELS 6 Xposition Yposition Zposition Xrotation Yrotation Zrotation
										JOINT mixamorig:RightHandIndex3
										{
											OFFSET -2.883064 -0.000046 0.000040 
											CHANNELS 6 Xposition Yposition Zposition Xrotation Yrotation Zrotation
											JOINT mixamorig:RightHandIndex4
											{
												OFFSET -2.392723 0.000031 0.000028 
												CHANNELS 6 Xposition Yposition Zposition Xrotation Yrotation Zrotation
												End Site
												{
													OFFSET 0.000000 2.392715 0.000000 
												}
											}
										}
									}
								}
								JOINT mixamorig:RightHandThumb1
								{
									OFFSET -2.464806 -1.572708 2.682626 
									CHANNELS 6 Xposition Yposition Zposition Xrotation Yrotation Zrotation
									JOINT mixamorig:RightHandThumb2
									{
										OFFSET -3.229774 -1.864716 1.864719 
										CHANNELS 6 Xposition Yposition Zposition Xrotation Yrotation Zrotation
										JOINT mixamorig:RightHandThumb3
										{
											OFFSET -2.652603 -1.531448 1.531446 
											CHANNELS 6 Xposition Yposition Zposition Xrotation Yrotation Zrotation
											JOINT mixamorig:RightHandThumb4
											{
												OFFSET -1.954582 -1.128464 1.128507 
												CHANNELS 6 Xposition Yposition Zposition Xrotation Yrotation Zrotation
												End Site
												{
													OFFSET 0.000000 2.523361 0.000000 
												}
											}
										}
									}
								}
							}
						}
					}
				}
			}
		}
	}
	JOINT mixamorig:LeftUpLeg
	{
		OFFSET 8.207782 -6.751717 -1.599555 
		CHANNELS 6 Xposition Yposition Zposition Xrotation Yrotation Zrotation
		JOINT mixamorig:LeftLeg
		{
			OFFSET -0.000001 -44.370472 0.284643 
			CHANNELS 6 Xposition Yposition Zposition Xrotation Yrotation Zrotation
			JOINT mixamorig:LeftFoot
			{
				OFFSET 0.000001 -44.427872 -2.982191 
				CHANNELS 6 Xposition Yposition Zposition Xrotation Yrotation Zrotation
				JOINT mixamorig:LeftToeBase
				{
					OFFSET -0.000003 -8.728670 10.710560 
					CHANNELS 6 Xposition Yposition Zposition Xrotation Yrotation Zrotation
					JOINT mixamorig:LeftToe_End
					{
						OFFSET -0.000003 -0.000677 9.278137 
						CHANNELS 6 Xposition Yposition Zposition Xrotation Yrotation Zrotation
						End Site
						{
							OFFSET 0.000000 9.278136 0.000000 
						}
					}
				}
			}
		}
	}
	JOINT mixamorig:RightUpLeg
	{
		OFFSET -8.207796 -6.751663 -1.599559 
		CHANNELS 6 Xposition Yposition Zposition Xrotation Yrotation Zrotation
		JOINT mixamorig:RightLeg
		{
			OFFSET 0.000000 -44.370537 0.286156 
			CHANNELS 6 Xposition Yposition Zposition Xrotation Yrotation Zrotation
			JOINT mixamorig:RightFoot
			{
				OFFSET 0.000001 -44.427731 -2.983789 
				CHANNELS 6 Xposition Yposition Zposition Xrotation Yrotation Zrotation
				JOINT mixamorig:RightToeBase
				{
					OFFSET -0.000002 -8.728668 10.710562 
					CHANNELS 6 Xposition Yposition Zposition Xrotation Yrotation Zrotation
					JOINT mixamorig:RightToe_End
					{
						OFFSET -0.000002 -0.000676 9.278120 
						CHANNELS 6 Xposition Yposition Zposition Xrotation Yrotation Zrotation
						End Site
						{
							OFFSET 0.000000 9.278120 0.000000 
						}
					}
				}
			}
		}
	}
}
MOTION
Frames: 3
Frame Time: 0.033333
-0.817987 -13.564264 0.084579 -6.084441 -43.005932 -4.182646 0.000009 10.181580 0.131521 5.821824 4.630206 -1.071716 0.000001 10.083466 -1.000801 11.839515 9.031709 -3.079606 0.000000 9.100023 -1.373414 11.839513 9.031706 -3.079604 -0.000000 16.671661 -2.516165 -4.303140 -1.284334 0.197021 0.000000 9.617909 1.685005 -6.271521 20.437798 -0.378350 -0.000000 17.815155 2.584981 -0.000000 0.000000 -0.000000 3.067560 6.409515 9.283548 -0.000000 0.000000 -0.000000 -3.067551 6.409515 9.283544 -0.000000 0.000000 -0.000000 4.570446 10.945967 -2.627985 1.386273 -0.696147 -7.881030 10.592364 -0.524582 -2.232111 -14.260095 2.394326 -63.276886 27.841537 -0.000088 0.000041 9.871569 -47.525036 5.926958 28.328829 -0.000009 0.000040 16.207493 0.931225 18.793358 2.466135 -1.575045 2.682413 9.152213 4.803503 -5.491567 3.229805 -1.864678 1.864681 -0.346032 0.040254 0.776961 2.652561 -1.531496 1.531474 -0.000000 -0.000076 -0.000068 1.954567 -1.128494 1.128490 -0.000003 -0.000002 -0.000003 9.109301 -0.517072 2.260072 -0.903658 -6.982543 -3.805408 3.676408 -0.000004 0.000024 0.048914 0.796348 -16.414539 2.883057 0.000049 -0.000040 0.000002 0.000001 -0.000000 2.392715 0.000034 0.000033 0.000002 0.000001 -0.000000 9.533396 -0.000028 0.000015 1.927612 9.681447 -14.541823 3.698224 0.000001 0.000012 -0.432164 -1.562852 -21.881786 2.950929 -0.000046 0.000017 0.000002 0.000001 -0.000001 2.833910 -0.000046 -0.000009 0.000002 0.000001 -0.000001 9.104522 -0.043928 -1.865084 2.594054 14.888603 -31.348759 3.154031 -0.000004 0.000006 -0.593928 -2.714372 -32.011192 2.937679 -0.000031 -0.000008 -0.000000 -0.000000 0.000002 2.647449 -0.000046 0.000003 -0.000000 -0.000000 0.000002 8.077770 -0.488665 -3.806068 4.163358 18.484955 -34.993229 3.600029 0.000009 -0.000026 -0.712220 -5.793980 -39.370914 2.114216 0.000009 -0.000001 -0.000000 -0.000011 -0.000013 1.975693 0.000015 -0.000045 0.000001 0.000000 -0.000000 -4.569971 10.946184 -2.628017 1.402687 9.461284 9.791404 -10.592855 -0.524794 -2.232100 1.219661 -24.271326 60.532757 -27.841522 -0.000030 0.000013 -6.660642 41.858109 8.041325 -28.328831 -0.000002 0.000061 6.244874 12.326529 11.668401 -8.076685 -0.488443 -3.806014 3.485307 -10.050946 24.328819 -3.600025 0.000042 0.000051 -1.479393 7.899397 41.089920 -2.114222 0.000016 0.000019 -0.000000 -0.000001 -0.000002 -1.975687 -0.000015 0.000000 -0.000000 -0.000001 -0.000002 -9.103596 -0.043915 -1.865074 2.402001 -7.401566 21.765772 -3.154033 0.000017 0.000048 -1.015594 3.787134 37.429523 -2.937667 -0.000047 -0.000036 -0.000001 0.000000 0.000003 -2.647445 0.000014 -0.000000 -0.000001 0.000000 0.000003 -9.532501 -0.000014 0.000017 -0.669890 -2.899465 12.730446 -3.698241 0.000019 -0.000025 -0.670362 1.829208 30.578159 -2.950921 -0.000007 -0.000002 0.000000 -0.002017 0.000004 -2.833907 0.000020 0.000054 0.000002 0.000000 -0.000000 -9.108298 -0.516786 2.260113 -1.070340 -1.211830 4.526339 -3.676407 0.000043 0.000033 0.123453 -1.106128 16.932755 -2.883071 -0.000048 0.000038 -0.000000 0.000000 -0.000000 -2.392715 0.000029 0.000028 -0.000000 0.000000 -0.000000 -2.464810 -1.572705 2.682621 -8.906147 -4.893828 -0.391280 -3.229771 -1.864708 1.864719 7.886449 -19.201784 -2.850127 -2.652600 -1.531455 1.531447 0.000005 -0.001215 -0.001235 -1.954574 -1.128463 1.128508 0.000001 0.000000 -0.000000 8.207782 -6.751729 -1.599554 -25.773376 6.206762 13.464527 0.000001 -44.370464 0.284653 33.874729 -14.118658 -0.200516 -0.000001 -44.427876 -2.982193 -5.506768 0.710368 -7.285815 -0.000005 -8.728670 10.710561 -2.319080 -3.208633 0.802958 -0.000005 -0.000677 9.278143 -0.000000 0.000000 -0.000000 -8.207794 -6.751675 -1.599560 -5.464939 -13.772890 -14.865010 -0.000001 -44.370529 0.286155 33.295898 -9.134208 -0.411245 0.000002 -44.427731 -2.983787 -20.257730 -3.786597 16.186256 -0.000002 -8.728669 10.710561 -1.786601 -0.361859 0.339077 -0.000002 -0.000676 9.278118 -0.000000 0.000001 -0.000000 
-0.405147 -13.689447 0.003380 -4.802464 -43.139606 -3.528852 0.000010 10.181581 0.131521 5.826705 4.320916 -1.056836 0.000001 10.083458 -1.000802 11.832626 8.397832 -3.031933 0.000001 9.100016 -1.373420 11.832637 8.397833 -3.031936 -0.000001 16.671656 -2.516158 -4.913010 -0.751262 0.375590 -0.000001 9.617868 1.685008 -5.477701 20.926723 -0.681182 -0.000001 17.815155 2.584981 -0.000001 -0.000000 -0.000000 3.067561 6.409500 9.283549 -0.000001 -0.000000 -0.000000 -3.067551 6.409500 9.283542 -0.000001 -0.000000 -0.000000 4.570446 10.945983 -2.627984 1.354250 -0.089842 -8.110879 10.592383 -0.524591 -2.232114 -13.725663 3.459255 -62.055019 27.841522 -0.000094 0.000043 9.763254 -49.774940 6.759497 28.328842 -0.000027 0.000043 15.811172 1.135805 17.435709 2.466135 -1.575030 2.682414 8.070356 4.043145 -5.446062 3.229789 -1.864692 1.864684 -0.302321 0.170293 0.819899 2.652572 -1.531488 1.531468 0.000003 -0.000074 -0.000067 1.954575 -1.128493 1.128493 0.000002 0.000001 -0.000003 9.109302 -0.517078 2.260072 -0.969857 -6.836391 -4.208389 3.676410 0.000002 0.000032 0.041559 0.772519 -16.617655 2.883060 0.000044 -0.000044 -0.000000 0.000000 0.000002 2.392734 0.000029 0.000035 -0.000000 0.000000 0.000002 9.533394 -0.000020 0.000014 1.818657 9.239956 -14.609542 3.698232 -0.000000 0.000020 -0.419686 -1.526929 -21.530945 2.950924 -0.000044 0.000017 0.000000 0.000001 -0.000001 2.833896 -0.000044 -0.000011 0.000000 0.000001 -0.000001 9.104533 -0.043922 -1.865084 2.430276 14.593102 -30.843870 3.154036 0.000010 0.000009 -0.566388 -2.679358 -31.307869 2.937675 -0.000046 -0.000006 0.000000 0.000000 -0.000000 2.647469 -0.000046 0.000001 0.000000 0.000000 -0.000000 8.077775 -0.488649 -3.806064 4.035581 18.404791 -34.102371 3.600030 0.000007 -0.000027 -0.703589 -5.784110 -38.767143 2.114209 0.000012 -0.000003 -0.000006 -0.000010 -0.000010 1.975693 0.000012 -0.000043 -0.000001 0.000000 -0.000000 -4.569971 10.946176 -2.628016 1.366688 8.748975 9.888528 -10.592839 -0.524793 -2.232097 0.208409 -22.114599 58.193684 -27.841524 -0.000025 0.000006 -5.029284 43.011169 8.210033 -28.328842 0.000003 0.000058 5.437367 11.584708 11.093248 -8.076681 -0.488467 -3.806007 3.630984 -10.349594 23.923597 -3.600060 0.000043 0.000051 -1.440271 7.854239 40.317039 -2.114204 0.000016 0.000018 0.000000 0.000001 0.000003 -1.975684 -0.000014 0.000000 0.000000 0.000001 0.000003 -9.103594 -0.043916 -1.865074 2.423504 -7.465620 21.665707 -3.154018 0.000026 0.000051 -0.959045 3.715696 36.395752 -2.937678 -0.000047 -0.000040 0.000001 -0.000001 0.000001 -2.647448 0.000029 -0.000001 0.000001 -0.000001 0.000001 -9.532499 -0.000018 0.000019 -0.694033 -2.793807 12.820609 -3.698225 0.000024 -0.000022 -0.635128 1.763767 29.747223 -2.950912 -0.000005 0.000003 -0.000000 -0.002019 0.000004 -2.833918 0.000031 0.000052 -0.000001 -0.000001 0.000001 -9.108279 -0.516780 2.260117 -1.138522 -0.944638 4.814544 -3.676406 0.000028 0.000030 0.120212 -1.095549 17.043182 -2.883065 -0.000045 0.000046 -0.000000 0.000003 -0.000000 -2.392716 0.000031 0.000031 -0.000000 0.000003 -0.000000 -2.464809 -1.572718 2.682624 -9.238504 -4.215314 -0.580674 -3.229782 -1.864711 1.864721 7.542312 -18.429092 -2.840961 -2.652615 -1.531455 1.531446 0.000007 -0.001215 -0.001236 -1.954599 -1.128465 1.128508 0.000001 0.000000 0.000001 8.207780 -6.751717 -1.599554 -27.029713 5.398614 13.193051 0.000000 -44.370457 0.284650 34.275379 -13.303804 0.033821 0.000001 -44.427872 -2.982193 -5.419283 0.769792 -7.449083 -0.000003 -8.728671 10.710560 -2.384001 -3.109763 0.873779 -0.000001 -0.000677 9.278141 0.000000 0.000001 -0.000000 -8.207795 -6.751671 -1.599559 -6.787366 -13.007611 -14.672821 -0.000000 -44.370533 0.286151 33.836575 -9.696817 -0.349730 0.000003 -44.427731 -2.983785 -20.138630 -3.867900 16.307365 -0.000002 -8.728668 10.710561 -1.558058 -0.220497 0.330598 0.000000 -0.000676 9.278116 -0.000000 0.000001 -0.000000 
0.882885 -14.787272 -0.410565 -1.638613 -43.926773 -1.359960 0.000009 10.181603 0.131522 5.963154 3.879547 -1.051201 0.000001 10.083442 -1.000800 12.070215 7.450349 -2.868740 0.000001 9.100017 -1.373415 12.070220 7.450338 -2.868740 0.000001 16.671698 -2.516168 -6.625829 0.278853 0.534435 0.000002 9.617891 1.685001 -5.323584 21.857510 -2.241407 -0.000000 17.815170 2.584986 -0.000000 0.000000 -0.000000 3.067560 6.409515 9.283556 -0.000000 0.000000 -0.000000 -3.067551 6.409515 9.283550 -0.000000 0.000000 -0.000000 4.570447 10.945989 -2.627988 1.254053 0.476459 -8.843555 10.592374 -0.524576 -2.232117 -12.886176 5.695531 -60.518467 27.841522 -0.000085 0.000038 9.044481 -55.019852 9.216432 28.328833 -0.000010 0.000043 15.264359 1.019187 16.037943 2.466133 -1.575060 2.682417 5.563272 1.995102 -5.803446 3.229797 -1.864688 1.864681 -0.248641 0.364500 0.900684 2.652568 -1.531489 1.531471 0.000003 -0.000073 -0.000065 1.954566 -1.128493 1.128492 0.000003 -0.000001 0.000000 9.109288 -0.517090 2.260079 -1.159334 -6.584955 -5.184789 3.676414 -0.000018 0.000030 0.022030 0.709075 -17.157930 2.883060 0.000045 -0.000041 0.000003 0.000000 -0.000001 2.392726 0.000030 0.000032 0.000003 0.000000 -0.000001 9.533389 -0.000015 0.000021 1.569135 8.260296 -14.854000 3.698237 -0.000002 0.000020 -0.395984 -1.457258 -20.850462 2.950910 -0.000030 0.000019 -0.000002 0.000001 0.000001 2.833898 -0.000045 -0.000009 -0.000002 0.000001 0.000001 9.104521 -0.043944 -1.865078 2.126340 13.943777 -29.838182 3.154042 -0.000011 0.000012 -0.520051 -2.603722 -29.851868 2.937660 -0.000044 -0.000006 -0.000003 0.000000 -0.000000 2.647461 -0.000044 -0.000001 -0.000003 0.000000 -0.000000 8.077770 -0.488657 -3.806063 3.860560 18.260849 -32.267406 3.600031 0.000002 -0.000029 -0.686161 -5.763727 -37.530224 2.114196 0.000016 -0.000003 0.000001 -0.000010 -0.000011 1.975693 0.000017 -0.000045 -0.000002 0.000000 -0.000000 -4.569971 10.946188 -2.628023 1.317157 7.246282 9.792919 -10.592852 -0.524808 -2.232086 -0.794663 -20.014231 54.861660 -27.841532 -0.000010 0.000010 -2.297423 48.382240 6.350257 -28.328842 0.000001 0.000056 5.763145 9.952334 10.185630 -8.076690 -0.488444 -3.806010 4.009419 -11.097959 23.112844 -3.600021 0.000036 0.000051 -1.358967 7.756274 38.671764 -2.114223 0.000013 0.000014 0.000000 -0.000002 -0.000002 -1.975688 -0.000018 -0.000000 0.000000 -0.000002 -0.000002 -9.103602 -0.043897 -1.865078 2.484693 -7.653148 21.509113 -3.154027 0.000029 0.000049 -0.847661 3.557511 34.176140 -2.937673 -0.000046 -0.000040 -0.000000 -0.000001 -0.000004 -2.647459 0.000030 -0.000002 -0.000000 -0.000001 -0.000004 -9.532503 -0.000000 0.000019 -0.761340 -2.560107 13.070625 -3.698246 0.000023 -0.000024 -0.558269 1.623072 27.973579 -2.950934 -0.000002 -0.000001 -0.000001 -0.002017 0.000006 -2.833906 0.000018 0.000055 0.000000 0.000001 0.000002 -9.108303 -0.516784 2.260114 -1.332404 -0.266627 5.498879 -3.676408 0.000033 0.000029 0.111580 -1.067373 17.338350 -2.883055 -0.000046 0.000040 -0.000000 -0.000004 -0.000001 -2.392729 0.000046 0.000025 -0.000000 -0.000004 -0.000001 -2.464812 -1.572714 2.682628 -10.140480 -2.535021 -0.825658 -3.229765 -1.864706 1.864720 6.743170 -16.635834 -2.803820 -2.652600 -1.531451 1.531445 0.000005 -0.001215 -0.001235 -1.954589 -1.128468 1.128507 0.000001 0.000000 -0.000000 8.207781 -6.751709 -1.599561 -31.653990 4.170125 12.711493 0.000001 -44.370472 0.284648 37.559998 -11.767836 0.162695 -0.000001 -44.427879 -2.982190 -6.034671 0.822188 -7.281858 -0.000001 -8.728671 10.710564 -1.756525 -2.800931 -0.376481 -0.000003 -0.000677 9.278139 -0.000000 -0.000001 -0.000000 -8.207796 -6.751649 -1.599559 -12.213754 -11.041323 -15.626360 0.000001 -44.370529 0.286153 38.387989 -9.781450 0.080490 -0.000000 -44.427731 -2.983787 -21.227465 -4.121005 16.625553 -0.000004 -8.728669 10.710560 -1.437883 -0.279087 0.292042 0.000000 -0.000676 9.278122 0.000000 0.000000 -0.000000 
